<svg class="fill-current" width="32" height="32" xmlns="http://www.w3.org/2000/svg"><path d="M12.255 16.522h1.736v7.22c0 .142.115.258.256.258h2.943a.257.257 0 0 0 .256-.258v-7.186h1.995c.13 0 .24-.099.254-.229l.303-2.658a.26.26 0 0 0-.063-.201.254.254 0 0 0-.19-.087h-2.3v-1.666c0-.502.269-.757.797-.757h1.503A.257.257 0 0 0 20 10.7V8.26a.257.257 0 0 0-.255-.258h-2.072c-.014 0-.047-.002-.095-.002-.359 0-1.608.071-2.595.988-1.093 1.017-.941 2.234-.905 2.445v1.948h-1.823a.257.257 0 0 0-.255.258v2.625c0 .142.114.258.255.258z" fill-rule="evenodd"/></svg>