<svg class="fill-current" width="24" height="24" xmlns="http://www.w3.org/2000/svg"><path d="M9.177 20.976c.188.094.386-.109.27-.276-.622-.91-1.212-2.44-.272-4.41 1.568-3.287 2.522-4.989 2.522-4.989s.507 1.986 1.883 3.753c1.324 1.7 2.048 3.837.88 5.618-.11.167.084.364.27.275 1.446-.694 3.068-2.085 3.251-4.853.068-.846-.033-2.03-.54-3.525-.65-1.895-1.45-2.779-1.913-3.158-.138-.114-.353-.013-.342.159.135 2.044-.685 2.563-1.152 1.394-.187-.467-.295-1.275-.295-2.258 0-1.637-.507-3.323-1.624-4.692a5.496 5.496 0 0 0-1.02-.973c-.141-.103-.346 0-.333.168.086 1.11.008 4.29-2.968 8.09-2.699 3.526-1.653 6.233-1.282 6.966.71 1.405 1.699 2.23 2.665 2.711z" fill-rule="evenodd"/></svg>