<svg class="fill-current" width="32" height="32" xmlns="http://www.w3.org/2000/svg"><path d="M20.27 10.77a.96.96 0 1 1 0 1.92.96.96 0 0 1 0-1.92zM16 18.667a2.666 2.666 0 1 0 .001-5.332 2.666 2.666 0 0 0 0 5.332zm0-6.774a4.108 4.108 0 1 1 0 8.215 4.108 4.108 0 0 1 0-8.215zm6.513 7.341c-.036.78-.167 1.203-.277 1.485a2.651 2.651 0 0 1-1.518 1.519c-.281.109-.705.239-1.485.275-.844.038-1.097.046-3.232.046-2.138 0-2.39-.008-3.234-.046-.779-.036-1.204-.166-1.485-.275a2.475 2.475 0 0 1-.92-.6 2.482 2.482 0 0 1-.598-.919c-.11-.282-.24-.706-.276-1.485-.038-.845-.047-1.097-.047-3.233 0-2.137.01-2.39.047-3.233.035-.78.166-1.204.276-1.486a2.47 2.47 0 0 1 .599-.92c.257-.265.57-.47.92-.598.28-.11.705-.24 1.484-.276.844-.038 1.097-.046 3.234-.046 2.135 0 2.388.008 3.232.046.78.036 1.204.166 1.485.276.348.128.662.333.92.599.266.257.47.572.598.92.11.281.24.705.277 1.485.037.843.046 1.096.046 3.233 0 2.136-.01 2.388-.046 3.233m1.068-8.474a3.934 3.934 0 0 0-.923-1.417 3.923 3.923 0 0 0-1.418-.923c-.508-.197-1.09-.333-1.942-.371C18.446 8.009 18.173 8 16 8s-2.446.01-3.299.049c-.852.038-1.434.174-1.942.371a3.925 3.925 0 0 0-1.417.923c-.407.4-.722.884-.923 1.417-.198.51-.333 1.091-.371 1.942-.04.853-.049 1.126-.049 3.299 0 2.172.01 2.445.049 3.298.038.851.174 1.433.371 1.942.201.533.516 1.016.923 1.417.4.407.883.72 1.417.923.508.197 1.09.332 1.942.37.853.04 1.126.049 3.299.049 2.172 0 2.445-.008 3.297-.049.852-.038 1.434-.173 1.942-.37a4.092 4.092 0 0 0 2.34-2.34c.198-.51.333-1.09.371-1.942.04-.853.049-1.126.049-3.298 0-2.173-.01-2.446-.048-3.299-.04-.85-.174-1.433-.371-1.942" fill-rule="evenodd"/></svg>