<svg width="32" height="32" class="fill-current" xmlns="http://www.w3.org/2000/svg"><path d="M23.16 12.28c.006.162.01.324.01.487 0 4.946-3.714 10.647-10.509 10.647A10.35 10.35 0 0 1 7 21.734a7.384 7.384 0 0 0 5.468-1.55c-1.616-.03-2.98-1.112-3.45-2.6a3.675 3.675 0 0 0 1.667-.063c-1.69-.343-2.962-1.855-2.962-3.67v-.047c.499.28 1.068.449 1.673.468a3.753 3.753 0 0 1-1.642-3.115c0-.686.181-1.33.5-1.882 1.82 2.265 4.542 3.754 7.611 3.912a3.786 3.786 0 0 1-.095-.854c0-2.066 1.654-3.743 3.693-3.743 1.062 0 2.02.455 2.696 1.182a7.313 7.313 0 0 0 2.346-.909 3.751 3.751 0 0 1-1.626 2.072 7.267 7.267 0 0 0 2.121-.59 7.485 7.485 0 0 1-1.84 1.936z" fill-rule="evenodd"/></svg>