<svg width="32" height="15" viewBox="0 0 38 18" xmlns="http://www.w3.org/2000/svg"><g fill="none" fill-rule="evenodd"><rect fill-opacity=".9" fill="#6CCFF6" x="34.462" y="9.984" width="3.538" height="3.516" rx="1.758"/><path d="M30.873 12.797c-.31.348-2.247 1.11-3.841.703-1.47-.374-2.619-1.887-2.619-2.298V4.43h3.052v5.532c0 1.142.594 1.536 1.585 1.536.872 0 1.466-.473 1.823-.926V4.43h3.051v8.332l.025-8.332v9.43c0 2.303-1.283 4.134-3.84 4.134-.435 0-1.577-.137-1.874-.197l.46-2.671c.178.039.915.171 1.054.171.693 0 1.15-.453 1.15-1.437l-.026-1.063zm-24.612.335v-.945c-.594.708-1.743 1.18-2.972 1.18-1.466 0-3.289-.984-3.289-3.13 0-2.303 1.823-2.992 3.29-2.992 1.267 0 2.397.394 2.971 1.103V7.146c0-.827-.713-1.379-1.942-1.379-.95 0-1.941.355-2.714 1.005l-1.09-1.91c1.229-1.044 2.873-1.477 4.34-1.477 2.298 0 4.457.847 4.457 3.8v5.946h-3.05zm0-2.442v-.846c-.317-.433-1.03-.67-1.704-.67-.812 0-1.525.355-1.525 1.103s.713 1.102 1.525 1.102c.674 0 1.387-.236 1.704-.689zm3.922 2.442V0h3.052v4.745c.753-.945 1.783-1.359 2.833-1.359 2.378 0 4.22 1.87 4.22 4.981 0 3.229-1.862 5-4.22 5-1.07 0-2.04-.432-2.833-1.338v1.103h-3.052zm3.692-3.288c.377.512 1.17.846 1.823.846 1.209 0 2.12-.886 2.12-2.323 0-1.417-.911-2.303-2.12-2.303-.654 0-1.446.354-1.823.866v2.914zm7.001 3.288V0h3.051v13.132h-3.05z" fill="#FFF"/></g></svg>
