<svg width="181px" height="24px" viewBox="0 0 181 24" version="1.1" xmlns="http://www.w3.org/2000/svg" xmlns:xlink="http://www.w3.org/1999/xlink">
    <g id="Page-1" stroke="none" stroke-width="1" fill="none" fill-rule="evenodd">
        <g id="Artboard" transform="translate(-161.000000, -124.000000)" fill="#E5E5E5">
            <path d="M340.068,133.418 C339.985634,133.697651 339.855369,133.960888 339.683,134.196 C339.493,134.466 339.237,134.719 338.915,134.955 C338.591,135.192 338.175,135.377 337.663,135.511 L337.663,135.581 C338.764,135.692 339.598,136.028 340.161,136.581 C340.725,137.135 341.007,137.717 341.007,138.325 L340.995,143.132 C340.995,143.627 340.879,144.106 340.65,144.568 C340.407262,145.049709 340.06181,145.472307 339.638,145.806 C339.194,146.165 338.656,146.456 338.021,146.682 C337.391,146.905 336.671,147.007 335.863,147.006007 L320.331,147.006007 L320.334,143.902 L323.644,143.902 L323.677,127.232 L320.372,127.228 L320.377,124.116 L326.51,124.124 L327.595,125.413 C327.729,125.593 327.933,125.682 328.203,125.684 C328.443,125.684 328.751,125.601 329.129,125.433 C329.506,125.263 329.945,125.071 330.442,124.858 C330.974633,124.6319 331.521463,124.440827 332.079,124.286 C332.709299,124.111611 333.361068,124.02711 334.015,124.035 L334.46,124.035 C336.45,124.037 337.9,124.467 338.815,125.328 C339.725,126.183 340.181,127.268 340.179,128.576 L340.179,132.842 C340.179,132.977 340.146,133.169 340.076,133.417 M335.609,127.69 C335.329,127.398 334.931,127.25 334.42,127.248 L329.66,127.240955 C329.147,127.238 328.717,127.386 328.365,127.681 C328.015,127.972 327.841,128.337 327.843,128.763 L327.83,134.007 L334.364,134.017 C334.905,134.017 335.314,133.871 335.596,133.578 C335.88,133.285 336.022,132.983 336.022,132.666 L336.032,128.774 C336.032,128.347 335.892,127.984 335.609,127.69 M336.396,137.522 C336.09,137.262 335.706,137.132 335.248,137.132 L327.823,137.12 L327.81,143.901 L335.234,143.901 C335.691,143.901 336.074,143.771 336.384,143.512 C336.694,143.253 336.85,142.932 336.85,142.547 L336.851,138.488 C336.851,138.103 336.697,137.782 336.387,137.522 M314.357,146.888084 L296.927,146.888084 L296.932,143.853 L300.259,143.853 L300.259,127.193 L296.969,127.193 L296.975,124.005 L313.92,124.005 C314.458,124.007 314.88,124.236 315.19,124.497 C315.498,124.757 315.654,125.078 315.652,125.463 L315.646,128.778 C315.646,129.139 315.503,129.431 315.219,129.658 C314.936,129.882 314.567,129.994 314.109,129.994 L311.487,129.987 L311.492,127.193 L304.414,127.193 L304.414,133.973 L311.154,133.98 L311.149,137.098 L304.414,137.088 L304.414,143.853 L311.982,143.853 L311.988,141.396 L316.138,141.401 L316.138,145.634 C316.138,146.017 315.972,146.339 315.649,146.598 C315.324,146.858 314.894,146.89 314.357,146.888084 M291.328,127.184 L286.002,145.214 C285.84,145.781 285.542,146.208 285.112,146.5 C284.698192,146.787457 284.205848,146.940398 283.702,146.938028 L282.569,146.935 C282.192,146.935 281.871,146.875 281.601,146.748 C281.347805,146.632475 281.11107,146.483843 280.897,146.306 C280.704929,146.149345 280.541504,145.960544 280.414,145.748 C280.307033,145.577439 280.219807,145.395269 280.154,145.205 L276.986,135.419 C276.85,135.893 273.859,145.195 273.859,145.195 C273.802,145.355 273.716,145.536 273.594,145.739 C273.474,145.942 273.314,146.129 273.11,146.296 C272.907,146.466 272.664,146.613 272.382,146.733 C272.083361,146.862312 271.760363,146.925752 271.435,146.919 L270.303,146.919 C269.793,146.919 269.324,146.77 268.894,146.477 C268.464,146.183 268.168,145.755 268.008,145.19 L262.76,127.14 L257.032,127.131 L250.228,135.412 L250.228,143.772 L253.526,143.776 L253.52,146.885 L242.75,146.885 L242.754,143.759 L246.071,143.764 L246.071,135.406 L239.321,127.105 L237.061,127.102 L237.057,128.726 C237.057,128.974 236.914,129.228 236.632,129.485 C236.349,129.745 235.978,129.861 235.522,129.861 L232.902,129.861 L232.902,127.096 L228.369,127.089 L228.369,143.738 L231.66,143.744 L231.653,146.885 L220.881,146.885 L220.887,143.728 L224.212,143.733 L224.212,127.081 L219.712,127.078 L219.705,129.861 L215.55,129.861 L215.56,125.31 C215.56,124.927 215.717,124.605 216.027,124.345 C216.335,124.088 216.707,124.001 217.137,124.001991 L245.742,124.001991 L245.734,127.115 L243.918,127.113 L248.145,132.262 L252.392,127.125 L250.577,127.122 L250.583,124.001991 L269.663,124.001991 L269.656,127.15 L266.993,127.146 L271.033,143.126 C271.194,142.539 274.688,131.76 274.688,131.76 C274.931,131.083 275.484,130.746 276.344,130.747 L277.716,130.75 C278.576,130.75 279.128,131.089 279.368,131.766 C279.368,131.766 282.816,142.556 282.976,143.142 L287.084,127.175 L284.419,127.172 L284.427,124.001991 L294.998,124.001991 L294.993,127.188 L291.323,127.181 M210.733,127.062 L210.733,145.474 C210.73,145.858 210.549,146.181 210.225,146.438 C209.903,146.699 209.512,146.828 209.055,146.826 L208.208,146.826 C207.778,146.826 207.428,146.729 207.159,146.537 C206.874367,146.327968 206.629211,146.069944 206.435,145.775 L195.922,130.966 L195.922,143.691 L198.492,143.696 L198.485,146.885 L188.435,146.885 L188.44,143.681 L191.767,143.685 L191.767,127.036 L188.477,127.03 L188.483,124 L194.575,124 C195.246,124 195.745,124.162 196.066,124.637 L206.579,139.44 L206.579,127.055 L204.009,127.053 L204.015,124 L214.065,124 L214.057,127.066 L210.731,127.06 M177.501,146.883 L177.508,143.664 L179.363,143.667 L178.2,140.38 L169.284,140.368 L168.106,143.648 L169.959,143.651 L169.959,146.883 L161,146.883 L161.006,143.637 L164.072,143.642 L169.958,127.002 L166.328,126.997 L166.334,124 L175.008,124 C175.628,124 176.243,124.099 176.525,124.38 C176.807,124.664 176.849,124.936 176.981,125.319 L183.399,143.67 L186.465,143.675 L186.459,146.883 L177.502,146.883 M173.709,127.04 C173.492,127.763 170.379,137.256 170.379,137.256 L177.116,137.267 L173.709,127.04" id="Shape"></path>
        </g>
    </g>
</svg>
